<?xml version="1.0" encoding="UTF-8" standalone="no"?>
<svg width="184.646mm" height="184.70702mm" viewBox="0 0 184.646 184.70702" version="1.1" id="svg5" xml:space="preserve"
  xmlns="http://www.w3.org/2000/svg" xmlns:svg="http://www.w3.org/2000/svg">
  <defs id="defs2" />
  <g id="layer1" transform="translate(-18.739001,-56.264685)">
    <path style="fill:#9a8866;stroke-width:0.0484603"
      d="m 108.37231,240.92134 c -0.77967,-0.21761 -1.66012,-1.10387 -2.45191,-2.46809 l -0.31057,-0.53509 -0.0317,-1.18727 c -0.0668,-2.49798 0.15239,-4.09257 0.60424,-4.3965 0.39587,-0.26628 1.20749,-0.40098 2.62472,-0.43561 1.5193,-0.0371 2.59522,0.0799 3.17501,0.34533 0.31736,0.14529 0.42682,0.35974 0.53552,1.0491 0.091,0.5772 0.10587,2.70152 0.0258,3.69133 -0.0456,0.56411 -0.0478,0.57163 -0.28039,0.94497 -0.56924,0.91385 -1.48258,1.97696 -2.1013,2.44585 -0.68315,0.51772 -1.26004,0.69374 -1.78944,0.54598 z m -12.462228,-0.95819 c -0.517329,-0.14679 -0.900175,-0.60713 -1.317864,-1.58461 -0.449339,-1.05155 -0.993931,-3.55074 -1.133487,-5.20169 -0.01726,-0.20419 -0.04248,-0.37125 -0.05605,-0.37125 -0.01357,0 -0.288411,0.17067 -0.61076,0.37926 -2.435814,1.57623 -4.595554,2.41167 -5.789219,2.23941 -0.94735,-0.13672 -1.257666,-0.67208 -1.123005,-1.93747 0.156062,-1.46655 0.919123,-3.67549 2.085112,-6.03606 1.080297,-2.18709 2.212717,-3.84179 2.83551,-4.14328 0.207764,-0.10057 0.22598,-0.10163 0.480028,-0.0278 0.812549,0.23622 2.175529,1.57556 3.787692,3.722 0.355001,0.47266 0.664159,0.89278 0.687008,0.93361 0.03688,0.0659 0.07149,0.0639 0.308067,-0.0175 0.400495,-0.13779 1.558042,-0.4271 2.079112,-0.51963 0.253205,-0.045 0.732962,-0.0842 1.066127,-0.0873 0.702907,-0.006 0.971587,0.0678 1.204307,0.33289 0.13195,0.15028 0.14534,0.20108 0.17755,0.67361 0.0192,0.28108 0.0264,2.46308 0.0161,4.84888 l -0.0187,4.33782 -0.2171,0.22384 c -0.584634,0.60278 -1.774596,1.48742 -2.47572,1.8405 -0.745678,0.37552 -1.513857,0.5283 -1.984624,0.39471 z m 20.989698,-0.0648 c -0.44012,-0.55952 -0.43487,-2.27902 0.0208,-6.82624 0.0908,-0.90621 0.17842,-1.85482 0.19469,-2.10802 0.0434,-0.67531 0.10547,-0.90404 0.30549,-1.12545 0.39381,-0.4359 0.94976,-0.58842 2.14091,-0.58737 0.89496,7.8e-4 1.53534,0.0712 2.61123,0.28714 0.33006,0.0662 0.60459,0.11427 0.61005,0.10673 0.005,-0.008 0.13464,-0.27522 0.28705,-0.59485 0.97346,-2.04141 2.26078,-4.06917 3.0549,-4.81203 0.7684,-0.7188 1.1176,-0.66496 2.07304,0.31967 2.16531,2.23145 5.36087,8.34107 5.36771,10.26256 8.8e-4,0.24883 -0.0221,0.32951 -0.14799,0.51958 -0.50457,0.76176 -2.11515,1.82552 -3.42557,2.26252 -0.47462,0.15828 -0.9874,0.23062 -1.15218,0.16254 -0.13606,-0.0562 -1.08201,-1.05706 -1.52759,-1.61626 -0.20156,-0.25295 -0.72493,-0.94717 -1.16305,-1.54273 -0.87647,-1.19141 -1.29412,-1.66336 -1.57633,-1.78128 -0.1823,-0.0762 -0.18794,-0.0753 -0.28937,0.0426 -0.20477,0.23807 -0.19454,0.77687 0.0525,2.76719 0.066,0.53191 0.12005,1.16986 0.12005,1.41767 0,0.43681 -0.005,0.45589 -0.15349,0.62537 -0.1896,0.21595 -1.13947,0.68843 -2.07602,1.03265 -1.82688,0.67146 -4.2731,1.3152 -4.99967,1.31569 -0.18732,0 -0.24413,-0.022 -0.32721,-0.12766 z M 52.85494,216.06846 26.639031,199.38561 V 151.68046 103.97531 L 67.193029,80.12 107.74703,56.264685 h 2.36489 2.36489 l 40.554,23.855315 40.554,23.85531 v 47.70552 47.70553 l -25.02975,15.4947 -25.02976,15.49471 -0.0126,-2.37193 -0.0126,-2.37193 0.81217,-0.90949 c 5.85218,-6.55347 10.14211,-12.80775 11.42453,-16.65581 0.4777,-1.43338 0.62236,-2.39365 0.62419,-4.14336 0.002,-1.46941 -0.0619,-2.05935 -0.36501,-3.39222 -0.82941,-3.64783 -3.12579,-7.25125 -5.25649,-8.24833 -0.25526,-0.11945 -0.35863,-0.14283 -0.55016,-0.12443 -0.69621,0.0669 -1.5948,0.90141 -2.61278,2.42646 -1.64255,2.46071 -4.00863,7.63112 -6.06076,13.24411 -0.21154,0.57863 -0.40204,1.06714 -0.42333,1.08557 -0.0213,0.0185 -3.81133,1.11046 -8.42233,2.4267 l -8.38363,2.39316 -0.4846,6.3e-4 c -0.61279,7.8e-4 -0.98302,-0.10914 -1.24286,-0.36899 -0.60641,-0.60641 -0.2065,-1.93271 1.14491,-3.79712 2.03667,-2.80977 3.01937,-4.22609 4.20448,-6.05971 2.99776,-4.63821 4.91795,-8.21817 5.75613,-10.73168 0.32713,-0.98098 0.41092,-1.41083 0.41092,-2.10802 0,-0.5312 -0.0114,-0.6058 -0.13146,-0.86209 -0.39251,-0.8377 -1.11852,-1.7487 -2.48316,-3.11589 -1.30294,-1.30538 -2.60592,-2.43958 -4.19858,-3.65471 l -0.45584,-0.3478 -1.19433,-3.57835 -1.19433,-3.57835 6.51035,-5.48232 c 3.58069,-3.01527 6.52769,-5.48437 6.54889,-5.48688 0.0212,-0.003 1.64023,2.50611 3.59784,5.57471 1.95761,3.0686 3.56423,5.57434 3.57026,5.56831 0.006,-0.006 -0.24941,-3.26021 -0.56765,-7.23151 -0.31824,-3.97129 -0.56671,-7.28896 -0.55213,-7.3726 0.0657,-0.3772 0.61018,-0.86269 1.40275,-1.25081 0.94183,-0.46121 2.85416,-0.98762 3.98412,-1.09673 1.82995,-0.1767 5.24031,0.45077 9.64885,1.77528 2.41283,0.72491 6.30362,2.08054 8.52753,2.97117 l 0.25394,0.10169 -2.38608,-4.77244 -2.38607,-4.77245 h -8.37346 -8.37346 l -0.42883,-0.16561 c -2.27623,-0.87908 -4.16935,-2.45638 -5.25985,-4.38237 -0.89283,-1.57686 -1.29769,-3.52774 -1.14297,-5.50753 0.11617,-1.48635 0.37675,-2.35475 0.98524,-3.28326 1.26684,-1.9331 3.80396,-3.13294 7.50469,-3.54906 2.23693,-0.25153 5.77484,-0.14308 8.13435,0.24934 0.16166,0.0269 0.78906,0.86581 13.38105,17.89215 7.26629,9.82517 13.20791,17.86839 13.20361,17.87384 -0.004,0.005 -6.56006,-1.60952 -14.56833,-3.58881 -9.44273,-2.33383 -14.57124,-3.58072 -14.59107,-3.54751 -0.058,0.0972 -4.74637,16.56449 -4.72274,16.58812 0.013,0.013 0.27009,-0.0222 0.57124,-0.0784 1.16273,-0.21672 1.75233,-0.26747 3.11595,-0.26822 1.41833,-7.7e-4 1.98453,0.0547 3.00454,0.29458 0.56883,0.13376 0.87179,0.26312 1.25997,0.53801 1.47741,1.04622 3.49668,3.88346 5.88818,8.27336 0.62955,1.15563 1.84993,3.55671 2.37127,4.66545 l 0.43917,0.934 -0.001,2.40976 -0.001,2.40976 -1.1827,4.72399 c -0.65048,2.5982 -1.17867,4.72696 -1.17374,4.73059 0.005,0.004 3.01235,-2.91298 6.68317,-6.48133 l 6.6742,-6.48791 5.99817,-0.75203 c 3.29899,-0.41362 6.04723,-0.76266 6.1072,-0.77565 l 0.10904,-0.0236 -0.004,-19.08033 -0.004,-19.08032 L 173.622,145.3105 c -13.90499,-12.68752 -14.54858,-13.28204 -14.46941,-13.36609 0.0456,-0.0484 2.4469,-2.07013 5.33629,-4.49278 l 5.25344,-4.40481 4.76122,-0.002 c 2.61868,-0.001 4.76123,0.007 4.76123,0.0184 0,0.0112 -1.60539,2.69586 -3.56753,5.96594 l -3.56753,5.94559 0.11473,0.10963 c 0.10925,0.10441 16.30861,13.98201 16.48333,14.12088 0.0792,0.063 0.0837,-1.00871 0.0837,-20.19179 v -20.25831 l -10.7703,-3.5901 -10.77036,-3.5901 h -3.54023 -3.54023 l -2.37193,-5.935718 c -1.30456,-3.264646 -2.38283,-5.935415 -2.39616,-5.935046 -0.0133,4.84e-4 -1.0903,1.602054 -2.39327,3.559298 l -2.36905,3.55862 0.11184,0.304743 c 0.0615,0.16761 0.30192,0.762692 0.53424,1.322409 2.43465,5.865834 5.14034,9.867464 7.20539,10.656564 2.54665,0.97313 8.66594,1.05817 17.55494,0.24397 1.36654,-0.12517 3.99993,-0.40326 4.98919,-0.52686 0.30529,-0.0382 0.57243,-0.0586 0.59364,-0.0455 0.0521,0.0322 0.0496,7.08081 -0.003,7.113 -0.0879,0.0543 -3.8613,0.3554 -6.40413,0.51099 -11.09038,0.67863 -18.63712,0.30513 -21.71022,-1.07446 -0.61929,-0.27801 -1.42579,-0.84944 -2.54417,-1.8026 -0.8147,-0.69435 -3.37279,-3.2393 -4.51157,-4.4884 -2.80383,-3.07546 -6.11218,-7.03781 -9.33456,-11.179814 l -0.80075,-1.029268 -1.14724,-4.592128 c -0.63098,-2.525669 -1.16842,-4.672199 -1.19431,-4.770075 l -0.0471,-0.177951 -7.13485,-2.378345 -7.13485,-2.378344 4.76114,4.761332 4.76115,4.761332 0.002,3.585971 0.002,3.585971 5.94684,3.564239 5.94685,3.56423 0.0123,4.77404 0.0123,4.77403 0.53436,0.0803 c 0.82139,0.1234 2.02063,0.40474 2.75288,0.64582 1.68173,0.55369 2.80892,1.31336 3.23852,2.1826 0.16526,0.33437 0.18442,0.41386 0.20134,0.83535 0.0216,0.53931 -0.029,0.77123 -0.23683,1.08503 -0.20184,0.30472 -0.45379,0.47948 -1.44713,1.00378 -1.436,0.75794 -2.09113,1.21573 -2.97742,2.08054 -0.86123,0.84035 -1.50025,1.66578 -2.46501,3.18411 -0.0994,0.15646 -0.34538,0.46983 -0.54659,0.69638 -1.84813,2.08094 -3.48666,5.6901 -4.33577,9.55033 -0.0769,0.34982 -0.14976,0.64588 -0.16181,0.65793 -0.0121,0.0121 -3.67039,-4.49275 -8.12964,-10.01066 -4.45926,-5.51791 -8.11524,-10.02508 -8.12439,-10.01592 -0.009,0.009 1.49881,4.66987 3.35104,10.35715 l 3.36769,10.34051 -0.13124,0.12759 c -0.13639,0.13258 -16.14354,13.37904 -16.23768,13.43722 -0.0295,0.0182 -4.77032,-3.27855 -10.594357,-7.36737 L 88.644041,137.3715 v -3.57823 -3.57823 h 8.359403 8.359406 v 2.37456 2.37455 h 3.56789 3.56789 l -0.0262,-0.13326 c -0.11102,-0.56441 -4.74178,-28.41924 -4.72704,-28.43398 0.0105,-0.0105 5.89264,2.11688 13.07152,4.72743 7.17888,2.61055 13.07164,4.74645 13.09502,4.74645 0.0238,0 0.0425,-1.04295 0.0425,-2.36981 v -2.3698 l -5.95982,-4.76598 -5.95981,-4.76597 -0.001,-4.773344 -0.001,-4.773341 -8.34083,-7.147896 -8.34082,-7.147896 9.52847,-0.01224 9.52848,-0.01224 7.16659,3.583359 7.16659,3.583358 0.0306,1.832202 c 0.0168,1.007713 0.0466,1.962551 0.0663,2.121859 l 0.0357,0.289662 0.45275,0.107548 c 0.8549,0.203073 1.59673,0.274983 2.84255,0.275541 1.56842,6.78e-4 3.21698,-0.203776 4.28874,-0.531954 1.44553,-0.442627 1.80144,-1.202698 1.11186,-2.374453 -0.20383,-0.346346 -1.27667,-1.44138 -1.64492,-1.678942 -0.39108,-0.252284 -11.05257,-6.086198 -17.93032,-9.811376 -9.3699,-5.074992 -15.82472,-8.466167 -17.36729,-9.124277 l -0.47887,-0.204299 -0.31539,0.07783 c -1.89183,0.466852 -9.23124,4.536888 -19.177121,10.634567 -0.932861,0.571923 -1.767638,1.082845 -1.855056,1.135381 l -0.158945,0.09551 0.115195,0.151856 c 0.262141,0.345575 9.527709,13.013624 9.582542,13.101429 0.0502,0.08038 -0.11928,0.943358 -1.064765,5.42156 -0.61846,2.929276 -1.131349,5.347766 -1.139757,5.374426 -0.01387,0.0439 -2.297644,-2.220609 -13.406657,-13.293747 l -3.61448,-3.602806 -2.390436,1.195414 -2.390436,1.195414 4.769081,4.769266 4.769086,4.76927 h -4.773127 -4.773128 l -3.576332,-3.573948 c -3.065212,-3.063167 -3.584668,-3.562943 -3.634645,-3.49695 -0.03207,0.04235 -1.639243,2.184901 -3.571491,4.761226 l -3.51316,4.684227 -5.960815,0.0012 -5.960814,0.0012 -8.032297,5.967604 -8.032296,5.96761 v 22.64699 22.64699 h 11.170102 c 6.143556,0 11.169215,0.0163 11.168132,0.0363 -0.0011,0.02 -0.947569,2.07532 -2.103301,4.56739 -1.155732,2.49207 -2.094132,4.53854 -2.085334,4.54772 0.0088,0.009 2.217603,-1.50097 4.908455,-3.35588 l 4.892457,-3.37256 h 3.591511 3.59151 l 1.187375,-2.37436 c 0.653056,-1.3059 1.187374,-2.38314 1.187374,-2.39389 0,-0.0107 -2.680587,-1.0918 -5.956857,-2.40237 l -5.956859,-2.38284 -7.148027,-16.67866 c -3.931414,-9.17327 -7.141364,-16.68533 -7.13322,-16.69347 0.0081,-0.008 2.683337,1.05308 5.944874,2.35828 3.933315,1.57403 5.92701,2.39475 5.920987,2.43741 -0.005,0.0354 -0.0584,0.2824 -0.118682,0.54893 -0.09752,0.43118 -0.109676,0.61549 -0.110276,1.67188 -9.01e-4,1.58528 0.157421,2.67688 0.646621,4.45835 0.51194,1.86429 1.672483,4.73221 2.36915,5.85461 2.32709,3.74919 8.043072,5.95878 16.703313,6.45688 0.479757,0.0276 1.668246,0.0507 2.641087,0.0514 l 1.768801,10e-4 2.36244,3.54671 c 1.299343,1.95069 2.362441,3.56284 2.362441,3.58256 0,0.0197 -1.602825,1.10453 -3.561833,2.41072 l -3.561833,2.37489 v 4.77317 4.77318 h 2.386723 2.386724 l 8.346203,8.34729 8.346209,8.34729 -1.995233,2.05956 c -2.670153,2.75625 -7.570387,7.6524 -9.100119,9.09253 -1.433263,1.34932 -1.722367,1.67525 -2.014689,2.27135 -0.785862,1.60251 -0.464405,3.12027 1.334315,6.2999 0.301554,0.53307 0.74502,1.31812 0.985475,1.74457 0.240455,0.42646 0.736897,1.35916 1.103209,2.07267 0.715792,1.39426 1.167956,2.11754 1.779249,2.84606 0.994793,1.18556 2.099223,2.06805 4.092745,3.27027 0.82555,0.49786 1.216014,0.79043 1.317951,0.98757 0.174675,0.33777 0.262204,2.67194 0.130135,3.47034 -0.222089,1.3426 -0.860267,1.99138 -1.796608,1.82644 -0.419952,-0.074 -6.767769,-2.53811 -9.790941,-3.80071 -3.855139,-1.61007 -7.198363,-3.23516 -8.196228,-3.98407 -0.72925,-0.54731 -1.504853,-1.45782 -2.15568,-2.53062 -0.702364,-1.15776 -1.332716,-2.55693 -2.607765,-5.78836 -0.949217,-2.40567 -1.450088,-3.43631 -2.069362,-4.25815 -0.376983,-0.50029 -0.758409,-0.83609 -1.19604,-1.05297 -0.299383,-0.14836 -0.416526,-0.17885 -0.755525,-0.19664 -0.817637,-0.0429 -1.328743,0.17504 -2.020243,0.86153 -0.718089,0.71289 -1.241373,1.64778 -1.758828,3.14229 -0.429416,1.24025 -0.854384,3.22622 -1.001747,4.6814 -0.06707,0.66233 -0.03594,3.26907 0.04895,4.09858 0.368933,3.60517 1.167239,6.64544 2.544927,9.69206 0.56117,1.24098 1.553608,3.00521 2.010085,3.57329 0.12779,0.15903 1.656398,1.3314 4.913527,3.76845 l 4.728035,3.5376 1.188606,3.55874 c 0.653729,1.95732 1.183076,3.56428 1.176316,3.57104 -0.0068,0.007 -11.809444,-7.495 -26.228195,-16.67057 z m 3.59107,-4.78701 1.191358,-2.38233 -1.193161,-1.19388 -1.193162,-1.19388 0.01193,-5.97947 0.01192,-5.97949 0.554768,-0.99655 c 0.850395,-1.52758 8.44194,-14.77169 8.8802,-15.49227 l 0.09213,-0.15148 4.712533,1.17984 c 2.591895,0.64891 4.739748,1.18048 4.773011,1.18126 0.03326,7.8e-4 0.594056,-1.06556 1.246205,-2.36964 l 1.185727,-2.37107 -3.581386,-1.1938 -3.581387,-1.19379 -1.172134,-3.52246 c -0.644672,-1.93735 -1.189982,-3.54194 -1.211794,-3.56576 -0.02249,-0.0245 -6.729739,3.04449 -15.489129,7.08737 -8.497206,3.92186 -15.465821,7.13064 -15.485811,7.13062 -0.01999,-3e-5 -0.03634,-1.065 -0.03634,-2.3666 v -2.36655 l 3.586063,-4.78118 3.586063,-4.78118 v -2.37472 -2.37472 H 37.37299 31.412372 v 15.48307 c 0,8.51569 0.0081,15.48307 0.01807,15.48307 0.0099,0 0.495144,-0.27501 1.078241,-0.61113 4.937948,-2.84646 9.212505,-5.07286 11.479145,-5.97892 1.071898,-0.42847 1.386314,-0.50901 1.986872,-0.50898 0.467481,2e-5 0.562874,0.0146 0.775365,0.11879 0.910579,0.4463 1.5265,2.00884 1.5265,3.87261 v 0.5052 l -3.565146,7.09439 c -1.960831,3.90192 -3.558085,7.11559 -3.549454,7.14148 0.01609,0.0483 13.991044,9.82094 14.056443,9.82965 0.01994,0.003 0.57236,-1.06722 1.227607,-2.3775 z m 80.19725,21.32359 c -0.83746,-0.59982 -2.29647,-3.97269 -4.29445,-9.92764 -0.77453,-2.30849 -2.33133,-7.21429 -2.30153,-7.25262 0.003,-0.004 1.9796,-0.53422 4.39172,-1.1776 2.41211,-0.6434 4.44898,-1.19055 4.52638,-1.21591 l 0.14073,-0.0461 -0.0335,1.12678 c -0.0642,2.16139 -0.2407,5.79515 -0.3949,8.1293 -0.31343,4.74446 -0.71497,8.01085 -1.16761,9.49822 -0.14848,0.4879 -0.22847,0.65667 -0.3962,0.83594 -0.14988,0.1602 -0.2772,0.16821 -0.47068,0.0296 z m -55.003926,-0.36581 c -0.197079,-0.19708 -0.359348,-0.78562 -0.478769,-1.73648 -0.175857,-1.40026 -0.197534,-2.07834 -0.196729,-6.15347 7.75e-4,-3.87667 0.02711,-5.06149 0.193923,-8.72286 0.11441,-2.51112 0.127286,-2.68955 0.194069,-2.68955 0.08666,0 9.586691,3.10264 9.631696,3.14564 0.07403,0.0707 -3.190685,6.79478 -4.54315,9.35712 -2.433667,4.61074 -3.946443,6.88137 -4.584626,6.88137 -0.07406,0 -0.171443,-0.0368 -0.216414,-0.0818 z m 23.166176,-28.08025 c -2.68876,-0.23143 -5.304131,-1.01707 -6.231265,-1.87181 -0.330053,-0.30429 -0.401454,-0.46559 -0.538379,-1.21627 -0.08595,-0.47125 -0.103618,-0.76351 -0.107306,-1.77561 -0.007,-1.91727 0.07026,-2.19737 0.810039,-2.93742 1.382701,-1.3832 4.707171,-4.0088 6.819601,-5.386 0.73767,-0.48092 1.44801,-0.87431 1.86417,-1.0324 0.30379,-0.11539 0.38478,-0.12619 0.77537,-0.10336 1.49319,0.0873 5.53706,1.57559 9.01399,3.31752 1.74755,0.87552 2.33083,1.25343 2.58357,1.67391 0.37771,0.62841 0.55702,1.39883 0.56047,2.40819 0.003,0.96721 -0.11597,1.43262 -0.49462,1.92993 -0.46318,0.60835 -3.54949,2.2282 -6.46221,3.39171 -2.35028,0.93882 -4.24106,1.45997 -5.83119,1.60721 -0.62025,0.0574 -2.06397,0.0545 -2.76224,-0.006 z m -8.923424,-36.8815 c -5.193666,-5.84241 -9.482942,-10.6729 -9.531717,-10.73442 -0.08777,-0.11068 -0.07656,-0.14828 1.084052,-3.63686 0.645007,-1.93877 1.197382,-3.54971 1.227505,-3.57987 0.03012,-0.0302 1.650384,-0.58555 3.600582,-1.23419 l 3.545812,-1.17934 7.14783,4.76499 c 4.70981,3.13972 7.16984,4.75237 7.21237,4.728 0.0355,-0.0204 4.32297,-2.69718 9.5277,-5.94852 5.20473,-3.25133 9.47434,-5.90032 9.48803,-5.88663 0.0137,0.0137 1.09247,3.22747 2.39728,7.14172 l 2.3724,7.11683 -0.1088,0.10567 c -0.0598,0.0581 -3.81545,3.28158 -8.34578,7.16325 l -8.23698,7.05757 -1.17379,-2.34057 c -0.64559,-1.28732 -1.17499,-2.37058 -1.17644,-2.40725 -10e-4,-0.0367 2.12355,-2.72433 4.72223,-5.97258 2.59868,-3.24825 4.72488,-5.91534 4.72488,-5.92687 0,-0.0115 -3.73987,2.11613 -8.31082,4.72815 -7.22837,4.13057 -8.30495,4.76007 -8.26579,4.83323 0.0247,0.0463 1.60721,2.68761 3.51656,5.86966 1.90935,3.18204 3.49262,5.82493 3.51839,5.87308 0.045,0.0841 -0.13855,0.0875 -4.72282,0.0875 h -4.76966 z M 68.024138,132.26555 c -1.001854,-0.12986 -2.027701,-0.52016 -2.881601,-1.09637 -0.472546,-0.31887 -1.145161,-0.97009 -1.535978,-1.48712 -0.364907,-0.48275 -0.910497,-1.56318 -1.125685,-2.22918 -0.690947,-2.13843 -0.809171,-4.80923 -0.34322,-7.75365 0.08845,-0.55891 0.242001,-1.36188 0.266832,-1.39534 0.0097,-0.0131 3.941171,2.14795 3.982061,2.18885 0.0099,0.01 -0.04975,0.1887 -0.132606,0.39728 -0.193057,0.486 -0.408274,1.32728 -0.484487,1.89389 -0.0835,0.62077 -0.03681,1.72376 0.0932,2.20139 0.409877,1.50589 1.535091,2.57873 3.227611,3.07739 0.588391,0.17336 1.559478,0.21637 2.160826,0.0957 0.512124,-0.10276 1.257134,-0.39815 1.735781,-0.68822 0.842793,-0.51075 1.810705,-1.40304 2.407692,-2.21957 0.184121,-0.25183 0.359067,-0.45358 0.388768,-0.44834 0.0297,0.005 0.786056,0.68506 1.680783,1.5107 1.220323,1.12611 1.614228,1.5163 1.57655,1.5617 -0.09164,0.11042 -1.120858,0.86379 -1.784837,1.30647 -2.545198,1.6969 -5.007486,2.7478 -7.132684,3.04422 -0.478168,0.0667 -1.712234,0.0903 -2.099006,0.0402 z m 4.332671,-13.30954 -9.090834,-6.4627 -10.390211,-1.25054 c -5.714616,-0.68779 -10.405339,-1.26353 -10.42383,-1.27941 -0.01849,-0.0159 1.279035,-1.37713 2.883389,-3.025 l 2.917007,-2.99612 8.265409,0.0159 8.265412,0.0159 8.346232,4.76894 c 4.850005,2.77123 8.36332,4.75043 8.387017,4.72477 0.02243,-0.0243 1.093056,-1.62519 2.379168,-3.55754 1.286108,-1.93236 2.344341,-3.52043 2.351624,-3.52906 0.02158,-0.0256 9.520731,7.11218 9.517673,7.15166 -0.0037,0.0478 -14.187119,11.85673 -14.260513,11.87316 -0.03119,0.007 -4.147582,-2.89552 -9.147543,-6.45 z"
      id="path302" />
  </g>
</svg>
